<svg width="281" height="60" viewBox="0 0 281 60" fill="none" xmlns="http://www.w3.org/2000/svg">
<g clip-path="url(#clip0_457_1674)">
<path d="M13.0004 21.702L14.6204 23.303L38.9911 47.2405L64.9819 21.702H58.4817L38.9911 40.8559L19.4906 21.702H13.0004V21.702Z" fill="#274276"/>
<path d="M0 21.702L1.62008 23.303L8.12025 29.6876L11.3703 26.4953L6.50018 21.7117H0V21.702ZM71.492 21.702L55.2515 37.6733L58.4917 40.8559L77.9823 21.702H71.492ZM14.6204 29.6779L11.3703 32.8702L17.8705 39.2548L21.1206 36.0625L14.6204 29.6779ZM24.3707 39.2548L21.1206 42.4472L38.9911 60L48.7414 50.4231L46.6939 48.412L45.4913 47.2405L38.9911 53.6252L24.3707 39.2646V39.2548ZM51.9915 40.8559L48.7513 44.0384L52.0014 47.2308L55.2515 44.0384L53.6314 42.4472L52.0014 40.8559H51.9915Z" fill="#203560"/>
<path d="M38.9911 0L28.8234 9.97722L28.7737 10.026H28.8731L31.6064 12.7107L34.3893 15.454L38.9415 19.9252L40.81 21.7605L43.593 24.494L38.9911 29.014L34.3396 24.4452L37.1226 21.7117H31.5567L28.7737 24.4452L38.9911 34.4712L49.1092 24.4354L46.3759 21.7507L43.593 19.0172L37.1822 12.7205L34.3993 9.98698L39.0011 5.47673L43.6526 10.0456L40.8696 12.779H46.4355L49.2185 10.0456L38.9911 0Z" fill="#80B3FF"/>
<path d="M43.5929 24.4938L40.81 27.2273L43.5731 29.9413L46.3759 27.1687L43.5929 24.5036V24.4938Z" fill="#6583C8"/>
<path d="M34.3893 9.97723L37.1922 7.23398L34.3893 4.52002L31.6064 7.2535L34.3794 9.98699L34.3893 9.97723Z" fill="#6583C8"/>
<path d="M108.992 31.3082L104.162 36.1308V42.8474H100.385V16.8793H104.162V31.3863L118.514 16.8793H122.818L111.527 28.5649L123.533 42.8474H119.11L108.992 31.3082Z" fill="#203560"/>
<path d="M150.269 16.8793V42.8474H147.168L131.306 23.4884V42.8474H127.529V16.8793H130.63L146.493 36.2382V16.8793H150.269Z" fill="#203560"/>
<path d="M165.953 39.8796L167.355 36.9899C169.323 38.7374 172.682 39.9967 176.081 39.9967C180.653 39.9967 182.611 38.2492 182.611 35.9941C182.611 29.6485 166.599 33.6609 166.599 24.0156C166.599 20.013 169.77 16.5961 176.717 16.5961C179.818 16.5961 183.019 17.4162 185.215 18.9001L183.973 21.8679C181.667 20.423 179.063 19.7494 176.727 19.7494C172.235 19.7494 170.307 21.6043 170.307 23.8692C170.307 30.2147 186.319 26.2414 186.319 35.7793C186.319 39.7527 183.068 43.1597 176.081 43.1597C172.036 43.1597 168.08 41.8223 165.963 39.8991L165.953 39.8796Z" fill="#203560"/>
<path d="M189.439 33.0166C189.439 27.1591 193.862 23.0003 199.866 23.0003C205.869 23.0003 210.252 27.1591 210.252 33.0166C210.252 38.874 205.869 43.0719 199.866 43.0719C193.862 43.0719 189.439 38.8838 189.439 33.0166V33.0166ZM206.584 33.0166C206.584 28.8285 203.712 26.1145 199.866 26.1145C196.019 26.1145 193.107 28.8187 193.107 33.0166C193.107 37.2144 196.019 39.9479 199.866 39.9479C203.712 39.9479 206.584 37.2047 206.584 33.0166Z" fill="#203560"/>
<path d="M215.271 15.3173H218.899V42.8376H215.271V15.3173Z" fill="#203560"/>
<path d="M243.528 23.1858L234.772 42.8474H231.074L222.308 23.1858H226.085L232.953 38.9521L239.98 23.1858H243.528Z" fill="#203560"/>
<path d="M257.691 23.0003V26.4465C257.393 26.4074 257.125 26.4074 256.866 26.4074C252.98 26.4074 250.565 28.7406 250.565 33.0459V42.8376H246.937V23.1858H250.416V26.4855C251.698 24.1816 254.193 23.0003 257.701 23.0003H257.691Z" fill="#203560"/>
<path d="M260.107 33.0166C260.107 27.1591 264.529 23.0003 270.533 23.0003C276.536 23.0003 280.919 27.1591 280.919 33.0166C280.919 38.874 276.536 43.0719 270.533 43.0719C264.529 43.0719 260.107 38.8838 260.107 33.0166V33.0166ZM277.251 33.0166C277.251 28.8285 274.379 26.1145 270.533 26.1145C266.686 26.1145 263.774 28.8187 263.774 33.0166C263.774 37.2144 266.676 39.9479 270.533 39.9479C274.389 39.9479 277.251 37.2047 277.251 33.0166Z" fill="#203560"/>
</g>
<defs>
<clipPath id="clip0_457_1674">
<rect width="280.909" height="60" fill="white"/>
</clipPath>
</defs>
</svg>
